<?xml version="1.0" encoding="utf-8"?>
<!-- Generator: Adobe Illustrator 24.0.1, SVG Export Plug-In . SVG Version: 6.00 Build 0)  -->
<svg version="1.1" id="Layer_1" xmlns="http://www.w3.org/2000/svg" xmlns:xlink="http://www.w3.org/1999/xlink" x="0px" y="0px"
	 viewBox="0 0 120 125.1" style="enable-background:new 0 0 120 125.1;" xml:space="preserve">
<style type="text/css">
	.st0{fill:#079247;}
	.st1{fill:#FFFFFF;}
</style>
<g>
	<g>
		<rect x="24" y="15.4" class="st0" width="56" height="78.5"/>
		<polygon class="st0" points="39.4,109.7 96.1,109.7 96.1,24.5 88.3,24.5 88.3,102.2 39.4,102.2 		"/>
	</g>
	<g>
		<path class="st1" d="M88.3,16.2V7.2H15.7v95h15.4V118h73.3V16.2H88.3z M24,93.9V15.4h56v78.5H24z M96.1,109.7H39.4v-7.5h48.9V24.5
			h7.8V109.7z"/>
		<path class="st1" d="M64.3,24.9c-2.3,0-10.2,0-12.6,0c-6.1,0-11,4.9-11,11s4.9,11,11,11c1.2,0,3.9,0,6.5,0l6.8,7.4v-7.4
			c5.7-0.4,10.2-5.1,10.2-10.9C75.3,29.8,70.4,24.9,64.3,24.9z"/>
		<path class="st1" d="M45.3,49.6c-1.7,0-7.4,0-9.1,0c-4.4,0-7.9,3.5-7.9,7.9c0,4.2,3.3,7.6,7.4,7.9v5.4l4.9-5.3c1.9,0,3.8,0,4.7,0
			c4.4,0,7.9-3.5,7.9-7.9C53.2,53.1,49.7,49.6,45.3,49.6z"/>
	</g>
</g>
</svg>
