<?xml version="1.0" encoding="utf-8"?>
<!-- Generator: Adobe Illustrator 24.0.1, SVG Export Plug-In . SVG Version: 6.00 Build 0)  -->
<svg version="1.1" id="Layer_1" xmlns="http://www.w3.org/2000/svg" xmlns:xlink="http://www.w3.org/1999/xlink" x="0px" y="0px"
	 viewBox="0 0 120 25.8" style="enable-background:new 0 0 120 25.8;" xml:space="preserve">
<style type="text/css">
	.st0{fill:#333333;}
</style>
<g>
	<path class="st0" d="M33.1,2c1.8,1.6,1.1,5.7-2.1,10.4c-3.3,4.9-8.2,8.9-12,9.9c10.5,0.8,21.5-2.4,25.5-7.5
		C48.7,9.3,43.6,3.7,33.1,2"/>
	<path class="st0" d="M29.3,1.5C18.8,0.8,7.8,3.9,3.8,9c-4.2,5.4,0.9,11,11.4,12.8c-1.8-1.6-1.1-5.7,2.1-10.4
		C20.6,6.5,25.5,2.5,29.3,1.5"/>
	<path class="st0" d="M57.2,18.3c0-0.7-0.1-1.5-0.6-2.1c-0.4-0.4-0.9-0.6-1.5-0.6c-0.6,0-1.1,0.2-1.5,0.6c-0.6,0.6-0.6,1.4-0.6,2.1
		c0,0.7,0.1,1.5,0.6,2.1c0.4,0.4,0.9,0.6,1.5,0.6c0.6,0,1.1-0.2,1.5-0.6C57.1,19.9,57.2,19.1,57.2,18.3L57.2,18.3z M56.6,18.3
		c0,0.6,0,1.3-0.5,1.7c-0.3,0.3-0.7,0.4-1.1,0.4c-0.4,0-0.8-0.2-1.1-0.4c-0.4-0.4-0.5-1.1-0.5-1.7c0-0.6,0-1.3,0.5-1.7
		c0.3-0.3,0.7-0.4,1.1-0.4c0.4,0,0.8,0.2,1.1,0.4C56.6,17,56.6,17.7,56.6,18.3L56.6,18.3z M59.5,16.1h1.2v-0.4h-1.2v-1.1
		c0-0.6,0.2-0.9,0.8-0.9h0.4v-0.5h-0.5c-0.8,0-1.3,0.6-1.3,1.4v1.1h-0.7v0.4h0.7v4.8h0.6V16.1L59.5,16.1z M64.6,20.9h4.7v-0.5h-4.1
		v-3.1h3.5v-0.5h-3.5v-3h4.1v-0.5h-4.7V20.9L64.6,20.9z M74.3,20.9h0.6v-3.3c0-0.6-0.2-1.1-0.5-1.5c-0.3-0.3-0.8-0.5-1.4-0.5
		c-0.6,0-1.1,0.2-1.5,0.7v-0.6h-0.6v5.2h0.6v-3.2c0-1,0.5-1.6,1.5-1.6s1.4,0.6,1.4,1.6V20.9L74.3,20.9z M80.4,21.2v-5.5h-0.6v0.7
		c-0.5-0.6-1-0.7-1.5-0.7c-0.6,0-1,0.2-1.3,0.5c-0.5,0.5-0.7,1.4-0.7,2.2s0.1,1.7,0.7,2.2c0.3,0.3,0.7,0.5,1.3,0.5
		c0.6,0,1.1-0.1,1.5-0.7v0.9c0,1-0.5,1.8-1.6,1.8c-0.7,0-0.9-0.2-1.4-0.6l-0.4,0.4c0.5,0.5,0.9,0.7,1.7,0.7
		C79.7,23.5,80.4,22.6,80.4,21.2L80.4,21.2z M79.9,18.3c0,1.1-0.2,2.2-1.5,2.2c-1.3,0-1.5-1.1-1.5-2.2c0-1.1,0.2-2.2,1.5-2.2
		C79.7,16.2,79.9,17.3,79.9,18.3L79.9,18.3z M82.4,20.9h0.6v-5.2h-0.6V20.9L82.4,20.9z M82.3,13.9H83v-0.7h-0.7V13.9L82.3,13.9z
		 M88.3,20.9h0.6v-3.3c0-0.6-0.2-1.1-0.5-1.5c-0.3-0.3-0.8-0.5-1.4-0.5c-0.6,0-1.1,0.2-1.5,0.7v-0.6h-0.6v5.2h0.6v-3.2
		c0-1,0.5-1.6,1.5-1.6c0.9,0,1.4,0.6,1.4,1.6V20.9L88.3,20.9z M91,18.5h3.6v-0.2c0-1.6-0.8-2.5-2.1-2.5c-1.3,0-2.1,1-2.1,2.7
		c0,1.7,0.8,2.7,2.2,2.7c0.9,0,1.4-0.3,1.9-0.8l-0.4-0.3c-0.4,0.4-0.8,0.6-1.4,0.6C91.6,20.5,91,19.8,91,18.5L91,18.5z M94.1,18H91
		c0-0.5,0.1-0.6,0.2-1c0.2-0.6,0.7-0.9,1.4-0.9c0.6,0,1.1,0.3,1.4,0.9C94,17.3,94.1,17.5,94.1,18L94.1,18z M96.5,18.5h3.6v-0.2
		c0-1.6-0.8-2.5-2.1-2.5c-1.3,0-2.1,1-2.1,2.7c0,1.7,0.8,2.7,2.2,2.7c0.9,0,1.4-0.3,1.9-0.8l-0.4-0.3c-0.4,0.4-0.8,0.6-1.4,0.6
		C97.1,20.5,96.5,19.8,96.5,18.5L96.5,18.5z M99.6,18h-3.1c0-0.5,0.1-0.6,0.2-1c0.2-0.6,0.7-0.9,1.4-0.9c0.6,0,1.1,0.3,1.4,0.9
		C99.6,17.3,99.6,17.5,99.6,18L99.6,18z M104.7,16.6l0.4-0.4c-0.4-0.4-0.7-0.5-1.3-0.5c-0.6,0-1.2,0.3-1.5,0.8v-0.7h-0.6v5.2h0.6
		v-3.2c0-0.8,0.5-1.6,1.4-1.6C104.2,16.2,104.4,16.2,104.7,16.6L104.7,16.6z M106,20.9h0.6v-5.2H106V20.9L106,20.9z M106,13.9h0.7
		v-0.7H106V13.9L106,13.9z M112,20.9h0.6v-3.3c0-0.6-0.2-1.1-0.5-1.5c-0.3-0.3-0.8-0.5-1.4-0.5c-0.6,0-1.1,0.2-1.5,0.7v-0.6h-0.6
		v5.2h0.6v-3.2c0-1,0.5-1.6,1.5-1.6s1.4,0.6,1.4,1.6V20.9L112,20.9z M118.2,21.2v-5.5h-0.6v0.7c-0.5-0.6-1-0.7-1.5-0.7
		c-0.6,0-1,0.2-1.3,0.5c-0.5,0.5-0.7,1.4-0.7,2.2s0.1,1.7,0.7,2.2c0.3,0.3,0.7,0.5,1.3,0.5c0.6,0,1.1-0.1,1.5-0.7v0.9
		c0,1-0.5,1.8-1.6,1.8c-0.7,0-0.9-0.2-1.4-0.6l-0.4,0.4c0.5,0.5,0.9,0.7,1.7,0.7C117.4,23.5,118.2,22.6,118.2,21.2L118.2,21.2z
		 M117.6,18.3c0,1.1-0.2,2.2-1.5,2.2s-1.5-1.1-1.5-2.2c0-1.1,0.2-2.2,1.5-2.2S117.6,17.3,117.6,18.3L117.6,18.3z"/>
	<path class="st0" d="M58.6,6.5c0-1.3,0-2.3-0.8-3.1c-0.5-0.5-1.2-0.8-2.1-0.8c-0.9,0-1.5,0.3-2.1,0.8c-0.8,0.8-0.8,1.7-0.8,3.1
		c0,1.3,0,2.3,0.8,3.1c0.5,0.5,1.2,0.8,2.1,0.8c0.9,0,1.5-0.3,2.1-0.8C58.6,8.8,58.6,7.9,58.6,6.5L58.6,6.5z M57.1,6.5
		c0,1.5-0.1,1.8-0.4,2.2c-0.2,0.2-0.6,0.4-1,0.4c-0.4,0-0.8-0.2-1-0.4c-0.3-0.3-0.4-0.7-0.4-2.2s0.1-1.8,0.4-2.2
		C55,4.1,55.3,4,55.7,4c0.4,0,0.7,0.2,1,0.4C57,4.7,57.1,5.1,57.1,6.5L57.1,6.5z M62.4,10.4V9.2h-0.5c-0.4,0-0.5-0.2-0.5-0.5v-6
		h-1.4v6.1c0,0.8,0.5,1.6,1.6,1.6H62.4L62.4,10.4z M64.9,10.4V4.8h-1.4v5.6H64.9L64.9,10.4z M64.9,3.8V2.6h-1.4v1.1H64.9L64.9,3.8z
		 M71.2,10.4V6.8c0-0.6-0.1-1.1-0.6-1.6c-0.3-0.3-0.8-0.5-1.3-0.5c-0.5,0-1,0.2-1.4,0.6V4.8h-1.4v5.6h1.4V7c0-0.8,0.5-1,0.9-1
		c0.4,0,0.9,0.3,0.9,1v3.4H71.2L71.2,10.4z M80.7,8h-1.5c-0.2,0.7-0.6,1.1-1.3,1.1c-0.4,0-0.7-0.1-1-0.4c-0.3-0.3-0.4-0.7-0.4-2.2
		s0.1-1.8,0.4-2.2c0.2-0.3,0.6-0.4,1-0.4c0.7,0,1.1,0.4,1.3,1.1h1.5c-0.3-1.6-1.4-2.4-2.8-2.4c-0.8,0-1.5,0.3-2.1,0.8
		c-0.3,0.3-0.5,0.7-0.6,1.2c-0.1,0.4-0.1,1.1-0.1,1.9s0,1.5,0.1,1.9c0.1,0.4,0.3,0.8,0.6,1.2c0.6,0.6,1.3,0.8,2.1,0.8
		C79.4,10.5,80.5,9.6,80.7,8L80.7,8z M86.3,7.6c0-1-0.1-1.7-0.6-2.2c-0.3-0.4-0.9-0.7-1.8-0.7c-0.8,0-1.4,0.3-1.7,0.7
		c-0.5,0.5-0.6,1.2-0.6,2.2c0,1,0.1,1.7,0.6,2.2c0.3,0.4,0.9,0.7,1.7,0.7c0.8,0,1.4-0.3,1.8-0.7C86.1,9.2,86.3,8.6,86.3,7.6
		L86.3,7.6z M84.9,7.6c0,0.6,0,1.1-0.3,1.4c-0.2,0.2-0.4,0.2-0.7,0.2c-0.3,0-0.5-0.1-0.6-0.2c-0.3-0.3-0.3-0.8-0.3-1.4
		c0-0.6,0-1.1,0.3-1.4C83.4,6.1,83.6,6,83.9,6c0.3,0,0.5,0.1,0.7,0.2C84.8,6.5,84.9,7,84.9,7.6L84.9,7.6z M89.7,10.4V9.2h-0.5
		c-0.4,0-0.5-0.2-0.5-0.5v-6h-1.4v6.1c0,0.8,0.5,1.6,1.6,1.6H89.7L89.7,10.4z M93.1,10.4V9.2h-0.5c-0.4,0-0.5-0.2-0.5-0.5v-6h-1.4
		v6.1c0,0.8,0.5,1.6,1.6,1.6H93.1L93.1,10.4z M98.6,8V7.4c0-1.5-0.9-2.7-2.5-2.7c-1.5,0-2.5,1-2.5,2.9c0,2.3,1.3,2.9,2.6,2.9
		c1,0,1.6-0.3,2.1-0.9l-0.9-0.8c-0.4,0.4-0.7,0.5-1.3,0.5c-0.8,0-1.2-0.5-1.2-1.3H98.6L98.6,8z M97.2,7.1h-2.1c0-0.2,0-0.4,0.1-0.6
		c0.2-0.3,0.5-0.6,0.9-0.6c0.5,0,0.8,0.2,0.9,0.6C97.2,6.7,97.2,6.8,97.2,7.1L97.2,7.1z M104.3,10.2V4.8H103v0.5
		c-0.4-0.4-0.8-0.6-1.4-0.6c-0.6,0-1,0.2-1.4,0.5c-0.5,0.5-0.6,1.2-0.6,2.2c0,1,0,1.7,0.6,2.2c0.3,0.3,0.8,0.5,1.3,0.5
		c0.6,0,1-0.2,1.3-0.6v0.6c0,0.6-0.3,1.2-1.1,1.2c-0.5,0-0.8-0.1-1.1-0.4l-0.9,0.9c0.6,0.6,1.2,0.7,2,0.7
		C103.4,12.5,104.3,11.6,104.3,10.2L104.3,10.2z M102.9,7.4c0,0.7-0.1,1.5-0.9,1.5c-0.8,0-0.9-0.7-0.9-1.5c0-0.7,0.1-1.5,0.9-1.5
		C102.8,6,102.9,6.7,102.9,7.4L102.9,7.4z M110.3,8V7.4c0-1.5-0.9-2.7-2.5-2.7c-1.5,0-2.5,1-2.5,2.9c0,2.3,1.3,2.9,2.6,2.9
		c1,0,1.6-0.3,2.1-0.9l-0.9-0.8c-0.4,0.4-0.7,0.5-1.3,0.5c-0.8,0-1.2-0.5-1.2-1.3H110.3L110.3,8z M108.9,7.1h-2.1
		c0-0.2,0-0.4,0.1-0.6c0.2-0.3,0.5-0.6,0.9-0.6c0.5,0,0.8,0.2,0.9,0.6C108.9,6.7,108.9,6.8,108.9,7.1L108.9,7.1z"/>
</g>
</svg>
