<?xml version="1.0" encoding="utf-8"?>
<!-- Generator: Adobe Illustrator 24.0.1, SVG Export Plug-In . SVG Version: 6.00 Build 0)  -->
<svg version="1.1" id="Layer_1" xmlns="http://www.w3.org/2000/svg" xmlns:xlink="http://www.w3.org/1999/xlink" x="0px" y="0px"
	 viewBox="0 0 120 25.8" style="enable-background:new 0 0 120 25.8;" xml:space="preserve">
<style type="text/css">
	.st0{fill:#333333;}
</style>
<g>
	<g>
		<path class="st0" d="M24.5,16c0,4.1-3.4,7.5-7.5,7.5c-4.1,0-7.5-3.4-7.5-7.5c0-2.2,0.9-4.1,2.4-5.5c0.4-0.4,0.6-0.9,0.6-1.5
			c0-1.1-0.9-2.1-2.1-2.1C9.3,7,8.4,7.9,8.4,9.1v11.8H3V9.1c0-4.1,3.4-7.5,7.5-7.5c4.1,0,7.5,3.4,7.5,7.5c0,2.1-0.9,4-2.3,5.4
			C15.2,14.8,15,15.4,15,16c0,1.1,0.9,2.1,2.1,2.1c1.1,0,2.1-0.9,2.1-2.1V4.3h5.4V16z"/>
	</g>
	<g>
		<g>
			<g>
				<path class="st0" d="M33,3.9h3.3c0.9,0,1.6,0.3,2.1,0.7c0.4,0.4,0.6,1,0.6,1.6v0c0,1.2-0.6,1.9-1.5,2.2l1.7,2.6h-1.8l-1.5-2.3
					h-1.2v2.3H33V3.9z M36.2,7.4c0.8,0,1.2-0.4,1.2-1v0c0-0.7-0.5-1-1.2-1h-1.6v2.1H36.2z"/>
				<path class="st0" d="M40.9,3.9h5.4v1.4h-3.8v1.5h3.4v1.4h-3.4v1.5h3.9v1.4h-5.5V3.9z"/>
				<path class="st0" d="M50,5.4h-2.2V3.9h5.9v1.5h-2.2v5.7H50V5.4z"/>
				<path class="st0" d="M55.3,8V3.9h1.6v4c0,1.2,0.6,1.8,1.5,1.8c1,0,1.5-0.6,1.5-1.7V3.9h1.6v4c0,2.2-1.2,3.2-3.1,3.2
					S55.3,10.1,55.3,8z"/>
				<path class="st0" d="M63.7,3.9H67c0.9,0,1.6,0.3,2.1,0.7c0.4,0.4,0.6,1,0.6,1.6v0c0,1.2-0.6,1.9-1.5,2.2l1.7,2.6H68l-1.5-2.3
					h-1.2v2.3h-1.6V3.9z M66.9,7.4c0.8,0,1.2-0.4,1.2-1v0c0-0.7-0.5-1-1.2-1h-1.6v2.1H66.9z"/>
				<path class="st0" d="M71.6,3.9H73l3.4,4.4V3.9H78v7.2h-1.3l-3.5-4.6v4.6h-1.6V3.9z"/>
			</g>
			<g>
				<path class="st0" d="M33,14h2.8c2.2,0,3.8,1.5,3.8,3.6v0c0,2-1.6,3.6-3.8,3.6H33V14z M35.8,19.7c1.3,0,2.2-0.9,2.2-2.1v0
					c0-1.3-0.9-2.2-2.2-2.2h-1.2v4.3H35.8z"/>
				<path class="st0" d="M41.5,14h5.4v1.4h-3.8v1.5h3.4v1.4h-3.4v1.5H47v1.4h-5.5V14z"/>
				<path class="st0" d="M48.4,20.1l0.9-1.1c0.6,0.5,1.3,0.9,2.1,0.9c0.6,0,1-0.3,1-0.7v0c0-0.4-0.2-0.6-1.4-0.9
					c-1.4-0.4-2.4-0.8-2.4-2.2v0c0-1.3,1-2.2,2.5-2.2c1,0,1.9,0.3,2.7,0.9L53.1,16c-0.6-0.4-1.3-0.7-1.9-0.7c-0.6,0-0.9,0.3-0.9,0.6
					v0c0,0.5,0.3,0.6,1.5,0.9c1.5,0.4,2.3,0.9,2.3,2.1v0c0,1.4-1.1,2.2-2.6,2.2C50.4,21.3,49.3,20.9,48.4,20.1z"/>
				<path class="st0" d="M56,14h1.6v7.2H56V14z"/>
				<path class="st0" d="M59.6,17.6L59.6,17.6c0-2.1,1.6-3.7,3.8-3.7c1.3,0,2.1,0.3,2.8,1l-1,1.2c-0.6-0.5-1-0.7-1.9-0.7
					c-1.1,0-2.1,1-2.1,2.2v0c0,1.3,0.9,2.3,2.2,2.3c0.6,0,1.1-0.1,1.5-0.4v-1h-1.6V17h3.1v3.1c-0.7,0.6-1.7,1.1-3.1,1.1
					C61.1,21.3,59.6,19.7,59.6,17.6z"/>
				<path class="st0" d="M68.4,14h1.5l3.4,4.4V14h1.6v7.2h-1.3L70,16.6v4.6h-1.6V14z"/>
			</g>
		</g>
	</g>
</g>
</svg>
