<?xml version="1.0" encoding="iso-8859-1"?>
<!-- Generator: Adobe Illustrator 24.0.1, SVG Export Plug-In . SVG Version: 6.00 Build 0)  -->
<svg version="1.1" id="Layer_1" xmlns="http://www.w3.org/2000/svg" xmlns:xlink="http://www.w3.org/1999/xlink" x="0px" y="0px"
	 viewBox="0 0 119.986 125.125" style="enable-background:new 0 0 119.986 125.125;" xml:space="preserve">
<g>
	<path style="fill:#FFFFFF;" d="M79.448,29.525c14.162,0,25.683,11.521,25.683,25.683S93.609,80.892,79.448,80.892H59.192h-3.647
		l-2.462,2.691l-6.572,7.184v-1.682v-7.742l-7.725-0.519c-13.419-0.902-23.93-12.153-23.93-25.615
		c0-14.162,11.521-25.683,25.683-25.683H79.448 M79.448,21.245c-7.239,0-31.67,0-38.91,0c-18.757,0-33.963,15.206-33.963,33.963
		c0,17.981,13.975,32.689,31.655,33.876v22.999l20.961-22.912c8.18,0,16.515,0,20.256,0c18.757,0,33.963-15.206,33.963-33.963
		S98.205,21.245,79.448,21.245L79.448,21.245z"/>
	<path style="fill:#CE5027;" d="M79.448,29.525h-38.91c-14.162,0-25.683,11.521-25.683,25.683c0,13.462,10.511,24.714,23.93,25.615
		l7.725,0.519v7.742v1.682l6.572-7.184l2.462-2.691h3.647h20.256c14.162,0,25.683-11.521,25.683-25.683S93.609,29.525,79.448,29.525
		z"/>
	<g>
		<rect x="43.497" y="39.869" style="fill:#FFFFFF;" width="32.991" height="11.756"/>
		<rect x="43.497" y="58.464" style="fill:#FFFFFF;" width="32.991" height="11.756"/>
	</g>
</g>
</svg>
